#!OML:ASF X:\für Bonn\!DataBase\2005_08_11_Bastian_Final\c3d\Bastian.ASF
:FULLY-SPECIFIED
:DEGREES
184
root 6.15271 11.0118 -3.09762 147.332 75.109 -209.618
lowerback 69.6104 -10.0912 10.4533
upperback 18.9342 4.26445 7.71197
thorax 0.481014 4.30407 3.0747
lowerneck -1.74666 -15.5393 3.22718
upperneck -27.0033 -17.7698 20.4233
head -6.31938 -10.8057 6.79165
rclavicle 2.70347e-013 1.85267e-013
rhumerus 29.5024 -10.1789 -41.4801
rradius 22.9699
rwrist 8.43735
rhand -50.5639 1.80415
rfingers 7.12502
rthumb -23.1302 -26.8273
lclavicle 2.70347e-013 1.85267e-013
lhumerus 8.40519 -36.5934 76.8659
lradius 51.5069
lwrist 26.6632
lhand -12.9225 -11.051
lfingers 7.12502
lthumb 13.1679 18.5132
rfemur -76.2389 -11.1837 10.2093
rtibia 113.622
rfoot -25.5425 -3.06649
rtoes -16.3282
lfemur -67.172 -1.64928 -36.3462
ltibia 111.769
lfoot -29.6107 -12.9961
ltoes 20.0897
185
root 6.1486 11.088 -3.09447 146.781 74.9939 -210.368
lowerback 69.5933 -10.0406 10.3855
upperback 18.9138 4.25918 7.70278
thorax 0.44741 4.29228 3.08649
lowerneck -1.97216 -15.4978 3.25252
upperneck -27.1072 -17.7378 20.2797
head -6.3371 -10.7716 6.73328
rclavicle -8.5875e-014 -3.01159e-014
rhumerus 29.8655 -10.0966 -41.2488
rradius 22.4392
rwrist 8.26261
rhand -50.4373 1.38812
rfingers 7.12502
rthumb -23.0088 -27.2585
lclavicle -8.5875e-014 -3.01159e-014
lhumerus 8.67757 -36.582 76.7958
lradius 51.5818
lwrist 26.681
lhand -12.9081 -10.9979
lfingers 7.12502
lthumb 13.1818 18.5654
rfemur -75.9466 -11.0151 9.92596
rtibia 113.008
rfoot -25.3614 -3.10641
rtoes -16.1955
lfemur -66.8652 -1.68989 -36.5142
ltibia 111.002
lfoot -29.3559 -12.9709
ltoes 19.9214
186
root 6.14401 11.1699 -3.09164 146.316 74.8881 -211.018
lowerback 69.6017 -10.0155 10.3405
upperback 18.8993 4.25045 7.68336
thorax 0.427442 4.28355 3.08273
lowerneck -2.25516 -15.4378 3.29374
upperneck -27.1931 -17.6867 20.1141
head -6.34519 -10.724 6.65915
rclavicle -2.22639e-014 -9.39258e-014
rhumerus 30.3038 -10.183 -41.1532
rradius 21.8513
rwrist 8.32582
rhand -50.2646 1.05725
rfingers 7.12502
rthumb -22.843 -27.61
lclavicle -2.22639e-014 -9.39258e-014
lhumerus 8.98079 -36.5312 76.7381
lradius 51.6048
lwrist 26.6579
lhand -12.9236 -10.9553
lfingers 7.12502
lthumb 13.1668 18.6089
rfemur -75.5968 -10.8205 9.66319
rtibia 112.343
rfoot -25.1614 -3.21253
rtoes -16.2909
lfemur -66.5195 -1.73098 -36.6475
ltibia 110.18
lfoot -29.0589 -12.9364
ltoes 19.8075
187
root 6.13965 11.2561 -3.08842 145.563 74.7472 -211.96
lowerback 69.6371 -9.96941 10.2369
upperback 18.8734 4.22685 7.64535
thorax 0.391236 4.26541 3.08497
lowerneck -2.55286 -15.3699 3.3638
upperneck -27.2529 -17.6299 19.9268
head -6.34864 -10.6727 6.57153
rclavicle -1.27222e-014 -5.26779e-014
rhumerus 30.7113 -10.2453 -41.0573
rradius 21.3225
rwrist 8.28328
rhand -50.0524 0.765979
rfingers 7.12502
rthumb -22.6394 -27.9262
lclavicle -1.27222e-014 -5.26779e-014
lhumerus 9.31607 -36.4896 76.6375
lradius 51.6169
lwrist 26.645
lhand -12.8815 -10.9422
lfingers 7.12502
lthumb 13.2074 18.6194
rfemur -75.2275 -10.6208 9.29151
rtibia 111.639
rfoot -24.9509 -3.22856
rtoes -16.2678
lfemur -66.1259 -1.77705 -36.8771
ltibia 109.304
lfoot -28.7906 -12.8457
ltoes 19.3947
188
root 6.13478 11.3461 -3.08528 144.752 74.5642 -212.93
lowerback 69.7586 -9.92822 10.0653
upperback 18.7851 4.16785 7.61095
thorax 0.281264 4.2192 3.12948
lowerneck -2.76988 -15.27 3.3644
upperneck -27.2641 -17.528 19.7418
head -6.34469 -10.5938 6.49604
rclavicle -6.36111e-014 1.07344e-014
rhumerus 31.1404 -10.2051 -41.0034
rradius 20.8352
rwrist 8.20673
rhand -49.7038 0.564665
rfingers 7.12502
rthumb -22.3047 -28.168
lclavicle -6.36111e-014 1.07344e-014
lhumerus 9.50137 -36.3827 76.6091
lradius 51.6245
lwrist 26.5364
lhand -12.8885 -10.8525
lfingers 7.12502
lthumb 13.2007 18.7095
rfemur -74.795 -10.4539 8.89001
rtibia 110.904
rfoot -24.7528 -3.26785
rtoes -16.2282
lfemur -65.6626 -1.82704 -37.1342
ltibia 108.36
lfoot -28.4494 -12.7906
ltoes 19.2791
189
root 6.13022 11.4414 -3.08216 144.008 74.4149 -213.836
lowerback 69.9376 -9.89728 9.97473
upperback 18.5904 4.13673 7.53675
thorax 0.065405 4.18385 3.08456
lowerneck -2.77383 -15.1734 3.46167
upperneck -27.3146 -17.4133 19.5193
head -6.40644 -10.5244 6.4238
rclavicle 6.99722e-014 1.80894e-014
rhumerus 31.3387 -10.0686 -40.8986
rradius 20.442
rwrist 7.99067
rhand -49.0901 0.27818
rfingers 7.12502
rthumb -21.7156 -28.5238
lclavicle 6.99722e-014 1.80894e-014
lhumerus 9.62275 -36.3992 76.5843
lradius 51.5809
lwrist 26.4301
lhand -12.8416 -10.7494
lfingers 7.12502
lthumb 13.2458 18.8098
rfemur -74.3294 -10.2294 8.5179
rtibia 110.118
rfoot -24.5139 -3.36831
rtoes -16.4146
lfemur -65.1689 -1.85429 -37.3596
ltibia 107.375
lfoot -28.1238 -12.702
ltoes 19.023
190
root 6.12595 11.5407 -3.07884 143.08 74.2237 -214.898
lowerback 70.1455 -9.86932 9.90213
upperback 18.3414 4.10584 7.41656
thorax -0.204099 4.15195 2.97895
lowerneck -2.60913 -15.0809 3.6286
upperneck -27.4132 -17.2728 19.3404
head -6.51801 -10.4616 6.37768
rclavicle 3.49861e-014 1.145e-013
rhumerus 31.3839 -9.95729 -40.8496
rradius 20.0732
rwrist 7.75213
rhand -48.3167 0.0486018
rfingers 7.12502
rthumb -20.9727 -28.8375
lclavicle 3.49861e-014 1.145e-013
lhumerus 9.70117 -36.5331 76.5481
lradius 51.5077
lwrist 26.2791
lhand -12.7786 -10.66
lfingers 7.12502
lthumb 13.3066 18.8952
rfemur -73.8034 -10.0198 8.07478
rtibia 109.296
rfoot -24.2783 -3.42749
rtoes -16.5015
lfemur -64.5979 -1.89571 -37.6364
ltibia 106.333
lfoot -27.7894 -12.6512
ltoes 18.9429
191
root 6.12201 11.6441 -3.07582 142.582 74.0907 -215.567
lowerback 70.3067 -9.88305 9.91942
upperback 18.0989 4.08039 7.3106
thorax -0.459494 4.12511 2.85391
lowerneck -2.49102 -14.9795 3.71689
upperneck -27.4552 -17.1241 19.2006
head -6.58953 -10.3869 6.34133
rclavicle -5.08889e-014 3.80673e-014
rhumerus 31.3881 -9.62917 -40.6197
rradius 19.7866
rwrist 7.23328
rhand -47.5236 -0.163184
rfingers 7.12502
rthumb -20.2106 -29.1318
lclavicle -5.08889e-014 3.80673e-014
lhumerus 9.86586 -36.6598 76.5144
lradius 51.3399
lwrist 26.1312
lhand -12.7643 -10.6037
lfingers 7.12502
lthumb 13.3204 18.9505
rfemur -73.2909 -9.77627 7.76802
rtibia 108.42
rfoot -24.0266 -3.52991
rtoes -16.5308
lfemur -64.0865 -1.92964 -37.7926
ltibia 105.288
lfoot -27.4387 -12.5592
ltoes 18.6176
192
root 6.11927 11.7517 -3.07196 142.657 74.0767 -215.753
lowerback 70.4084 -9.91307 10.0495
upperback 17.8523 4.09286 7.22877
thorax -0.714276 4.11329 2.69778
lowerneck -2.40084 -14.8786 3.8306
upperneck -27.5531 -16.985 18.9959
head -6.68391 -10.3136 6.28463
rclavicle 2.8625e-014 8.27938e-014
rhumerus 31.316 -8.9917 -40.1427
rradius 19.6368
rwrist 6.25708
rhand -46.8564 -0.411178
rfingers 7.12502
rthumb -19.5692 -29.4463
lclavicle 2.8625e-014 8.27938e-014
lhumerus 10.0458 -36.7776 76.4781
lradius 51.1509
lwrist 25.9333
lhand -12.7862 -10.593
lfingers 7.12502
lthumb 13.2993 18.9627
rfemur -72.8488 -9.4386 7.66454
rtibia 107.485
rfoot -23.7195 -3.71413
rtoes -16.5394
lfemur -63.6996 -1.94217 -37.7295
ltibia 104.235
lfoot -27.0431 -12.5833
ltoes 18.4627
193
root 6.11667 11.8618 -3.06749 142.936 74.0873 -215.739
lowerback 70.4861 -9.98524 10.2628
upperback 17.6125 4.11245 7.13524
thorax -0.950714 4.11206 2.49638
lowerneck -2.45471 -14.837 4.01877
upperneck -27.6037 -16.9642 18.7155
head -6.74553 -10.2917 6.17816
rclavicle 1.27222e-013 7.02704e-014
rhumerus 31.2667 -8.49711 -39.7889
rradius 19.4645
rwrist 5.38543
rhand -46.4446 -0.520371
rfingers 7.12502
rthumb -19.1733 -29.5953
lclavicle 1.27222e-013 7.02704e-014
lhumerus 10.2491 -36.8572 76.4729
lradius 50.9595
lwrist 25.7283
lhand -12.6757 -10.5538
lfingers 7.12502
lthumb 13.4058 18.9949
rfemur -72.3921 -9.09682 7.64042
rtibia 106.517
rfoot -23.4187 -3.93522
rtoes -16.6649
lfemur -63.3137 -1.96427 -37.6085
ltibia 103.167
lfoot -26.6283 -12.5539
ltoes 18.1151
194
root 6.11535 11.9751 -3.06388 143.187 74.1032 -215.75
lowerback 70.5202 -10.0494 10.447
upperback 17.4145 4.11574 7.03877
thorax -1.14462 4.10585 2.30922
lowerneck -2.47497 -14.7569 4.19139
upperneck -27.7379 -16.8646 18.4787
head -6.83993 -10.237 6.09689
rclavicle 9.54166e-014 -2.32578e-014
rhumerus 31.1725 -7.7263 -39.2608
rradius 19.4241
rwrist 4.14254
rhand -46.2613 -0.752169
rfingers 7.12502
rthumb -18.997 -29.8445
lclavicle 9.54166e-014 -2.32578e-014
lhumerus 10.4889 -36.9419 76.3901
lradius 50.8057
lwrist 25.6013
lhand -12.6079 -10.4328
lfingers 7.12502
lthumb 13.4712 19.1116
rfemur -71.9079 -8.74669 7.59835
rtibia 105.512
rfoot -23.0928 -4.1135
rtoes -16.6137
lfemur -62.9056 -1.98232 -37.4826
ltibia 102.077
lfoot -26.2319 -12.5664
ltoes 17.9849
195
root 6.11401 12.0882 -3.06014 143.331 74.1007 -215.841
lowerback 70.6022 -10.1089 10.6038
upperback 17.1854 4.11544 6.94623
thorax -1.37445 4.09233 2.13858
lowerneck -2.54487 -14.6735 4.23096
upperneck -27.7707 -16.7706 18.2904
head -6.87029 -10.1711 6.03057
rclavicle 1.90833e-014 -3.8266e-014
rhumerus 31.0416 -6.8746 -38.7161
rradius 19.4175
rwrist 2.84073
rhand -46.0661 -0.967874
rfingers 7.12502
rthumb -18.8093 -30.0785
lclavicle 1.90833e-014 -3.8266e-014
lhumerus 10.6627 -36.9823 76.3839
lradius 50.6341
lwrist 25.4332
lhand -12.4933 -10.3861
lfingers 7.12502
lthumb 13.5816 19.1509
rfemur -71.4025 -8.41176 7.53307
rtibia 104.497
rfoot -22.765 -4.31436
rtoes -16.6785
lfemur -62.4438 -2.01162 -37.3958
ltibia 100.957
lfoot -25.8305 -12.5197
ltoes 17.7184
196
root 6.11373 12.2044 -3.05497 143.469 74.1012 -215.936
lowerback 70.6592 -10.1483 10.7109
upperback 16.9971 4.1031 6.85809
thorax -1.56553 4.07393 1.99664
lowerneck -2.69296 -14.5792 4.27627
upperneck -27.7931 -16.665 18.1092
head -6.88431 -10.0971 5.9569
rclavicle 7.63333e-014 6.2816e-014
rhumerus 31.0695 -6.44316 -38.6016
rradius 19.2982
rwrist 2.15993
rhand -45.8813 -1.12488
rfingers 7.12502
rthumb -18.6315 -30.2526
lclavicle 7.63333e-014 6.2816e-014
lhumerus 10.8847 -36.9649 76.3373
lradius 50.434
lwrist 25.2489
lhand -12.4313 -10.2625
lfingers 7.12502
lthumb 13.6413 19.2705
rfemur -70.8677 -8.07749 7.47167
rtibia 103.456
rfoot -22.4464 -4.49559
rtoes -16.7904
lfemur -61.9602 -2.01503 -37.3031
ltibia 99.8021
lfoot -25.4246 -12.506
ltoes 17.3505
